<mxfile host="Electron" modified="2023-09-21T07:54:58.303Z" agent="Mozilla/5.0 (Windows NT 10.0; Win64; x64) AppleWebKit/537.36 (KHTML, like Gecko) draw.io/21.7.5 Chrome/114.0.5735.289 Electron/25.8.1 Safari/537.36" etag="zBZ27-bEXNlKocZWvHLT" version="21.7.5" type="device">
  <diagram name="Seite-1" id="YrP5GcN9CgrO8MYTwbel">
    <mxGraphModel dx="1285" dy="755" grid="1" gridSize="10" guides="1" tooltips="1" connect="1" arrows="1" fold="1" page="1" pageScale="1" pageWidth="827" pageHeight="1169" math="0" shadow="0">
      <root>
        <mxCell id="0" />
        <mxCell id="1" parent="0" />
        <mxCell id="g0N1U7HoLvcAoAi2xHrJ-1" value="" style="endArrow=classic;html=1;rounded=0;" edge="1" parent="1">
          <mxGeometry width="50" height="50" relative="1" as="geometry">
            <mxPoint x="120" y="490" as="sourcePoint" />
            <mxPoint x="120" y="40" as="targetPoint" />
          </mxGeometry>
        </mxCell>
        <mxCell id="g0N1U7HoLvcAoAi2xHrJ-2" value="" style="endArrow=classic;html=1;rounded=0;" edge="1" parent="1">
          <mxGeometry width="50" height="50" relative="1" as="geometry">
            <mxPoint x="110" y="480" as="sourcePoint" />
            <mxPoint x="560" y="480" as="targetPoint" />
          </mxGeometry>
        </mxCell>
        <mxCell id="g0N1U7HoLvcAoAi2xHrJ-3" value="Auswirkung" style="text;html=1;strokeColor=none;fillColor=none;align=center;verticalAlign=middle;whiteSpace=wrap;rounded=0;" vertex="1" parent="1">
          <mxGeometry x="290" y="530" width="60" height="30" as="geometry" />
        </mxCell>
        <mxCell id="g0N1U7HoLvcAoAi2xHrJ-4" value="Eintrittswahrscheinli hkeit" style="text;html=1;strokeColor=none;fillColor=none;align=center;verticalAlign=middle;whiteSpace=wrap;rounded=0;rotation=-90;" vertex="1" parent="1">
          <mxGeometry x="10" y="260" width="60" height="30" as="geometry" />
        </mxCell>
        <mxCell id="g0N1U7HoLvcAoAi2xHrJ-5" value="" style="endArrow=none;dashed=1;html=1;dashPattern=1 3;strokeWidth=2;rounded=0;" edge="1" parent="1">
          <mxGeometry width="50" height="50" relative="1" as="geometry">
            <mxPoint x="120" y="400" as="sourcePoint" />
            <mxPoint x="520" y="400" as="targetPoint" />
          </mxGeometry>
        </mxCell>
        <mxCell id="g0N1U7HoLvcAoAi2xHrJ-6" value="" style="endArrow=none;dashed=1;html=1;dashPattern=1 3;strokeWidth=2;rounded=0;" edge="1" parent="1">
          <mxGeometry width="50" height="50" relative="1" as="geometry">
            <mxPoint x="120" y="320" as="sourcePoint" />
            <mxPoint x="520" y="320" as="targetPoint" />
          </mxGeometry>
        </mxCell>
        <mxCell id="g0N1U7HoLvcAoAi2xHrJ-7" value="" style="endArrow=none;dashed=1;html=1;dashPattern=1 3;strokeWidth=2;rounded=0;" edge="1" parent="1">
          <mxGeometry width="50" height="50" relative="1" as="geometry">
            <mxPoint x="120" y="240" as="sourcePoint" />
            <mxPoint x="520" y="240" as="targetPoint" />
          </mxGeometry>
        </mxCell>
        <mxCell id="g0N1U7HoLvcAoAi2xHrJ-8" value="" style="endArrow=none;dashed=1;html=1;dashPattern=1 3;strokeWidth=2;rounded=0;" edge="1" parent="1">
          <mxGeometry width="50" height="50" relative="1" as="geometry">
            <mxPoint x="120" y="160" as="sourcePoint" />
            <mxPoint x="520" y="160" as="targetPoint" />
          </mxGeometry>
        </mxCell>
        <mxCell id="g0N1U7HoLvcAoAi2xHrJ-9" value="" style="endArrow=none;dashed=1;html=1;dashPattern=1 3;strokeWidth=2;rounded=0;" edge="1" parent="1">
          <mxGeometry width="50" height="50" relative="1" as="geometry">
            <mxPoint x="120" y="80" as="sourcePoint" />
            <mxPoint x="520" y="80" as="targetPoint" />
          </mxGeometry>
        </mxCell>
        <mxCell id="g0N1U7HoLvcAoAi2xHrJ-10" value="" style="endArrow=none;dashed=1;html=1;dashPattern=1 3;strokeWidth=2;rounded=0;" edge="1" parent="1">
          <mxGeometry width="50" height="50" relative="1" as="geometry">
            <mxPoint x="200" y="480" as="sourcePoint" />
            <mxPoint x="200" y="80" as="targetPoint" />
          </mxGeometry>
        </mxCell>
        <mxCell id="g0N1U7HoLvcAoAi2xHrJ-11" value="" style="endArrow=none;dashed=1;html=1;dashPattern=1 3;strokeWidth=2;rounded=0;" edge="1" parent="1">
          <mxGeometry width="50" height="50" relative="1" as="geometry">
            <mxPoint x="280" y="480" as="sourcePoint" />
            <mxPoint x="280" y="80" as="targetPoint" />
          </mxGeometry>
        </mxCell>
        <mxCell id="g0N1U7HoLvcAoAi2xHrJ-12" value="" style="endArrow=none;dashed=1;html=1;dashPattern=1 3;strokeWidth=2;rounded=0;" edge="1" parent="1">
          <mxGeometry width="50" height="50" relative="1" as="geometry">
            <mxPoint x="360" y="480" as="sourcePoint" />
            <mxPoint x="360" y="80" as="targetPoint" />
          </mxGeometry>
        </mxCell>
        <mxCell id="g0N1U7HoLvcAoAi2xHrJ-13" value="" style="endArrow=none;dashed=1;html=1;dashPattern=1 3;strokeWidth=2;rounded=0;" edge="1" parent="1">
          <mxGeometry width="50" height="50" relative="1" as="geometry">
            <mxPoint x="440" y="480" as="sourcePoint" />
            <mxPoint x="440" y="80" as="targetPoint" />
          </mxGeometry>
        </mxCell>
        <mxCell id="g0N1U7HoLvcAoAi2xHrJ-14" value="" style="endArrow=none;dashed=1;html=1;dashPattern=1 3;strokeWidth=2;rounded=0;" edge="1" parent="1">
          <mxGeometry width="50" height="50" relative="1" as="geometry">
            <mxPoint x="520" y="480" as="sourcePoint" />
            <mxPoint x="520" y="80" as="targetPoint" />
          </mxGeometry>
        </mxCell>
        <mxCell id="g0N1U7HoLvcAoAi2xHrJ-15" value="sehr niedrig" style="text;html=1;strokeColor=none;fillColor=none;align=center;verticalAlign=middle;whiteSpace=wrap;rounded=0;rotation=-90;" vertex="1" parent="1">
          <mxGeometry x="60" y="420" width="60" height="30" as="geometry" />
        </mxCell>
        <mxCell id="g0N1U7HoLvcAoAi2xHrJ-16" value="sehr niedrig" style="text;html=1;strokeColor=none;fillColor=none;align=center;verticalAlign=middle;whiteSpace=wrap;rounded=0;" vertex="1" parent="1">
          <mxGeometry x="130" y="490" width="60" height="30" as="geometry" />
        </mxCell>
        <mxCell id="g0N1U7HoLvcAoAi2xHrJ-17" value="niedrig" style="text;html=1;strokeColor=none;fillColor=none;align=center;verticalAlign=middle;whiteSpace=wrap;rounded=0;rotation=-90;" vertex="1" parent="1">
          <mxGeometry x="60" y="340" width="60" height="30" as="geometry" />
        </mxCell>
        <mxCell id="g0N1U7HoLvcAoAi2xHrJ-18" value="niedrig" style="text;html=1;strokeColor=none;fillColor=none;align=center;verticalAlign=middle;whiteSpace=wrap;rounded=0;" vertex="1" parent="1">
          <mxGeometry x="220" y="490" width="60" height="30" as="geometry" />
        </mxCell>
        <mxCell id="g0N1U7HoLvcAoAi2xHrJ-19" value="mittel" style="text;html=1;strokeColor=none;fillColor=none;align=center;verticalAlign=middle;whiteSpace=wrap;rounded=0;rotation=-90;" vertex="1" parent="1">
          <mxGeometry x="60" y="260" width="60" height="30" as="geometry" />
        </mxCell>
        <mxCell id="g0N1U7HoLvcAoAi2xHrJ-20" value="hoch" style="text;html=1;strokeColor=none;fillColor=none;align=center;verticalAlign=middle;whiteSpace=wrap;rounded=0;rotation=-90;" vertex="1" parent="1">
          <mxGeometry x="60" y="190" width="60" height="30" as="geometry" />
        </mxCell>
        <mxCell id="g0N1U7HoLvcAoAi2xHrJ-21" value="sehr hoch" style="text;html=1;strokeColor=none;fillColor=none;align=center;verticalAlign=middle;whiteSpace=wrap;rounded=0;rotation=-90;" vertex="1" parent="1">
          <mxGeometry x="60" y="100" width="60" height="30" as="geometry" />
        </mxCell>
        <mxCell id="g0N1U7HoLvcAoAi2xHrJ-22" value="mittel" style="text;html=1;strokeColor=none;fillColor=none;align=center;verticalAlign=middle;whiteSpace=wrap;rounded=0;" vertex="1" parent="1">
          <mxGeometry x="290" y="490" width="60" height="30" as="geometry" />
        </mxCell>
        <mxCell id="g0N1U7HoLvcAoAi2xHrJ-23" value="hoch" style="text;html=1;strokeColor=none;fillColor=none;align=center;verticalAlign=middle;whiteSpace=wrap;rounded=0;" vertex="1" parent="1">
          <mxGeometry x="370" y="490" width="60" height="30" as="geometry" />
        </mxCell>
        <mxCell id="g0N1U7HoLvcAoAi2xHrJ-24" value="sehr hoch" style="text;html=1;strokeColor=none;fillColor=none;align=center;verticalAlign=middle;whiteSpace=wrap;rounded=0;" vertex="1" parent="1">
          <mxGeometry x="450" y="490" width="60" height="30" as="geometry" />
        </mxCell>
        <mxCell id="g0N1U7HoLvcAoAi2xHrJ-26" value="1" style="ellipse;whiteSpace=wrap;html=1;aspect=fixed;fillColor=#DBDBDB;opacity=50;" vertex="1" parent="1">
          <mxGeometry x="470" y="350" width="40" height="40" as="geometry" />
        </mxCell>
        <mxCell id="g0N1U7HoLvcAoAi2xHrJ-27" value="2" style="ellipse;whiteSpace=wrap;html=1;aspect=fixed;fillColor=#DBDBDB;opacity=50;" vertex="1" parent="1">
          <mxGeometry x="430" y="240" width="40" height="40" as="geometry" />
        </mxCell>
        <mxCell id="g0N1U7HoLvcAoAi2xHrJ-28" value="3" style="ellipse;whiteSpace=wrap;html=1;aspect=fixed;fillColor=#DBDBDB;opacity=50;" vertex="1" parent="1">
          <mxGeometry x="290" y="240" width="40" height="40" as="geometry" />
        </mxCell>
        <mxCell id="g0N1U7HoLvcAoAi2xHrJ-29" value="4" style="ellipse;whiteSpace=wrap;html=1;aspect=fixed;fillColor=#DBDBDB;opacity=50;" vertex="1" parent="1">
          <mxGeometry x="470" y="430" width="40" height="40" as="geometry" />
        </mxCell>
        <mxCell id="g0N1U7HoLvcAoAi2xHrJ-30" value="5" style="ellipse;whiteSpace=wrap;html=1;aspect=fixed;fillColor=#DBDBDB;opacity=50;" vertex="1" parent="1">
          <mxGeometry x="440" y="400" width="40" height="40" as="geometry" />
        </mxCell>
        <mxCell id="g0N1U7HoLvcAoAi2xHrJ-31" value="6" style="ellipse;whiteSpace=wrap;html=1;aspect=fixed;fillColor=#DBDBDB;opacity=50;" vertex="1" parent="1">
          <mxGeometry x="300" y="420" width="40" height="40" as="geometry" />
        </mxCell>
        <mxCell id="g0N1U7HoLvcAoAi2xHrJ-32" value="7" style="ellipse;whiteSpace=wrap;html=1;aspect=fixed;fillColor=#DBDBDB;opacity=50;" vertex="1" parent="1">
          <mxGeometry x="210" y="340" width="40" height="40" as="geometry" />
        </mxCell>
        <mxCell id="g0N1U7HoLvcAoAi2xHrJ-33" value="Risiko-toleranz-bereich" style="whiteSpace=wrap;html=1;fillColor=#d5e8d4;strokeColor=none;opacity=50;" vertex="1" parent="1">
          <mxGeometry x="120" y="400" width="80" height="80" as="geometry" />
        </mxCell>
        <mxCell id="g0N1U7HoLvcAoAi2xHrJ-34" value="Eskalations-bereich" style="whiteSpace=wrap;html=1;fillColor=#f8cecc;strokeColor=none;opacity=50;" vertex="1" parent="1">
          <mxGeometry x="440" y="80" width="80" height="80" as="geometry" />
        </mxCell>
      </root>
    </mxGraphModel>
  </diagram>
</mxfile>
